<mxfile host="65bd71144e">
    <diagram name="architecture-v2" id="P4dwEfBAopwTsvKWpZbJ">
        <mxGraphModel dx="1308" dy="523" grid="1" gridSize="10" guides="1" tooltips="1" connect="1" arrows="1" fold="1" page="1" pageScale="1" pageWidth="827" pageHeight="1169" math="0" shadow="0">
            <root>
                <mxCell id="0"/>
                <mxCell id="1" parent="0"/>
                <mxCell id="4" style="edgeStyle=none;html=1;entryX=0;entryY=0.5;entryDx=0;entryDy=0;" parent="1" source="1JPAs1Oe00RzC8cp2zDA-3" target="RGFtp0fSlKZifVYG_G0y-1" edge="1">
                    <mxGeometry relative="1" as="geometry"/>
                </mxCell>
                <mxCell id="1JPAs1Oe00RzC8cp2zDA-3" value="SOURCE&lt;br&gt;cryptocompare" style="shape=datastore;whiteSpace=wrap;html=1;" parent="1" vertex="1">
                    <mxGeometry x="172" y="260" width="90" height="70" as="geometry"/>
                </mxCell>
                <mxCell id="13" style="edgeStyle=none;html=1;" parent="1" source="RGFtp0fSlKZifVYG_G0y-1" target="12" edge="1">
                    <mxGeometry relative="1" as="geometry"/>
                </mxCell>
                <mxCell id="14" value="according to below schema" style="edgeStyle=none;html=1;exitX=0.15;exitY=0.95;exitDx=0;exitDy=0;exitPerimeter=0;entryX=0.477;entryY=0;entryDx=0;entryDy=0;entryPerimeter=0;" parent="1" source="RGFtp0fSlKZifVYG_G0y-1" target="9pbraypFke-kRTxzQT_L-4" edge="1">
                    <mxGeometry relative="1" as="geometry"/>
                </mxCell>
                <mxCell id="RGFtp0fSlKZifVYG_G0y-1" value="DEST&lt;br&gt;(prod db)" style="shape=datastore;whiteSpace=wrap;html=1;" parent="1" vertex="1">
                    <mxGeometry x="640" y="260" width="90" height="70" as="geometry"/>
                </mxCell>
                <mxCell id="9pbraypFke-kRTxzQT_L-4" value="&lt;b&gt;Simple DW&lt;/b&gt;" style="rounded=0;whiteSpace=wrap;html=1;align=right;" parent="1" vertex="1">
                    <mxGeometry x="172" y="400" width="350" height="230" as="geometry"/>
                </mxCell>
                <mxCell id="9pbraypFke-kRTxzQT_L-1" value="fact_prices&lt;br&gt;date&lt;br&gt;coin_id = 1; price_in_usd = 25&lt;br&gt;CHECKSUM" style="rounded=0;whiteSpace=wrap;html=1;" parent="1" vertex="1">
                    <mxGeometry x="190" y="420" width="120" height="80" as="geometry"/>
                </mxCell>
                <mxCell id="9pbraypFke-kRTxzQT_L-2" value="dim_coins&lt;br&gt;id, &lt;br&gt;ABBR, &lt;br&gt;name&lt;br&gt;,checksum" style="rounded=0;whiteSpace=wrap;html=1;" parent="1" vertex="1">
                    <mxGeometry x="190" y="510" width="120" height="80" as="geometry"/>
                </mxCell>
                <mxCell id="5" value="START STREAMING&lt;br&gt;(Apache Flink)&lt;br&gt;KICK OFF" style="edgeStyle=none;html=1;" parent="1" source="2" edge="1">
                    <mxGeometry relative="1" as="geometry">
                        <mxPoint x="520" y="290" as="targetPoint"/>
                        <Array as="points">
                            <mxPoint x="520" y="191"/>
                        </Array>
                    </mxGeometry>
                </mxCell>
                <mxCell id="2" value="IF up" style="sketch=0;aspect=fixed;html=1;points=[];align=center;image;fontSize=12;image=img/lib/mscae/Docker.svg;" parent="1" vertex="1">
                    <mxGeometry x="60" y="170" width="50" height="41" as="geometry"/>
                </mxCell>
                <mxCell id="9" value="CICD&lt;br&gt;Pytest UNIT&amp;nbsp;&lt;br&gt;TESTS passing?&lt;br&gt;DevOps" style="edgeStyle=none;html=1;exitX=1;exitY=0.5;exitDx=0;exitDy=0;entryX=0;entryY=0.5;entryDx=0;entryDy=0;" parent="1" source="6" target="8" edge="1">
                    <mxGeometry relative="1" as="geometry"/>
                </mxCell>
                <mxCell id="6" value="Repo&lt;br&gt;(&lt;b&gt;new-feature &lt;/b&gt;branch)" style="rounded=0;whiteSpace=wrap;html=1;" parent="1" vertex="1">
                    <mxGeometry x="40" y="40" width="120" height="60" as="geometry"/>
                </mxCell>
                <mxCell id="10" value="BUILD AND UP" style="edgeStyle=none;html=1;" parent="1" source="8" edge="1">
                    <mxGeometry relative="1" as="geometry">
                        <mxPoint x="80" y="160" as="targetPoint"/>
                        <Array as="points">
                            <mxPoint x="420" y="120"/>
                            <mxPoint x="240" y="120"/>
                            <mxPoint x="80" y="120"/>
                        </Array>
                    </mxGeometry>
                </mxCell>
                <mxCell id="8" value="Repo&lt;br&gt;(&lt;b&gt;main&amp;nbsp;&lt;/b&gt;branch)" style="rounded=0;whiteSpace=wrap;html=1;" parent="1" vertex="1">
                    <mxGeometry x="360" y="40" width="120" height="60" as="geometry"/>
                </mxCell>
                <mxCell id="12" value="Plotly&lt;br&gt;dash (must&lt;br&gt;be realtime)" style="shape=internalStorage;whiteSpace=wrap;html=1;backgroundOutline=1;" parent="1" vertex="1">
                    <mxGeometry x="625" y="430" width="120" height="90" as="geometry"/>
                </mxCell>
            </root>
        </mxGraphModel>
    </diagram>
</mxfile>